<svg width="45" height="45" viewBox="0 0 45 45" fill="none" xmlns="http://www.w3.org/2000/svg">
<g filter="url(#filter0_i_2167_280)">
<path d="M22.5 0C10.0938 0 0 8.73504 0 19.4717C0 25.6818 3.45802 31.5207 9.16091 35.1594C8.9861 35.5092 8.77027 35.8519 8.56258 36.1964C7.55873 37.8586 5.58444 40.1123 5.58444 40.1123C4.65328 41.4921 5.74415 42.9843 7.51127 42.8281C9.34761 42.6665 10.8463 42.2623 12.423 41.6141C14.5536 40.7369 16.6773 39.8521 18.261 38.5966C18.3594 38.6129 18.4598 38.6197 18.5584 38.6347C21.1859 40.8073 24.6954 42.1483 28.5577 42.1483C29.4698 42.1483 30.3822 42.0721 31.2857 41.9193C32.1147 42.413 33.1755 43.0315 34.1049 43.4524C35.4376 44.0544 36.628 44.6413 38.7361 44.9716C40.3423 45.2237 41.6145 43.7543 40.7508 42.3425C39.7574 41.3764 38.9975 40.1782 38.5198 38.6972C41.533 36.2483 43.2692 32.7911 43.2692 29.0654C43.2692 28.4422 43.2022 27.8342 43.107 27.234C44.3154 24.8552 45 22.2342 45 19.4717C45 8.73504 34.9062 0 22.5 0ZM28.5577 19.5341C34.7608 19.5341 39.8077 23.8107 39.8077 29.0654C39.8077 32.2903 37.8902 35.2739 34.6796 37.0462C34.2919 37.2611 34.1248 37.732 34.2875 38.1422C34.5298 38.7549 34.806 39.3168 35.1123 39.814C34.0738 39.4517 33.0874 38.9466 32.2964 38.3677C32.1528 38.2629 31.9878 38.2081 31.813 38.2081C31.749 38.2081 31.6827 38.213 31.6203 38.2289C30.613 38.4705 29.5823 38.5931 28.5577 38.5931C22.3546 38.5931 17.3077 34.3166 17.3077 29.0619C17.3077 23.809 22.3546 19.5341 28.5577 19.5341ZM23.2133 27.1924C22.9642 27.1892 22.7171 27.2368 22.4861 27.3323C22.2551 27.4279 22.0449 27.5695 21.8677 27.7491C21.6905 27.9286 21.5498 28.1425 21.4537 28.3783C21.3577 28.6141 21.3083 28.8671 21.3083 29.1226C21.3083 29.3781 21.3577 29.6311 21.4537 29.8669C21.5498 30.1027 21.6905 30.3166 21.8677 30.4961C22.0449 30.6757 22.2551 30.8173 22.4861 30.9129C22.7171 31.0084 22.9642 31.056 23.2133 31.0528C23.4623 31.056 23.7095 31.0084 23.9405 30.9129C24.1714 30.8173 24.3816 30.6757 24.5589 30.4961C24.7361 30.3166 24.8768 30.1027 24.9728 29.8669C25.0688 29.6311 25.1183 29.3781 25.1183 29.1226C25.1183 28.8671 25.0688 28.6141 24.9728 28.3783C24.8768 28.1425 24.7361 27.9286 24.5589 27.7491C24.3816 27.5695 24.1714 27.4279 23.9405 27.3323C23.7095 27.2368 23.4623 27.1892 23.2133 27.1924ZM28.6219 27.1924C28.3729 27.1892 28.1257 27.2368 27.8947 27.3323C27.6637 27.4279 27.4535 27.5695 27.2763 27.7491C27.0991 27.9286 26.9584 28.1425 26.8624 28.3783C26.7664 28.6141 26.7169 28.8671 26.7169 29.1226C26.7169 29.3781 26.7664 29.6311 26.8624 29.8669C26.9584 30.1027 27.0991 30.3166 27.2763 30.4961C27.4535 30.6757 27.6637 30.8173 27.8947 30.9129C28.1257 31.0084 28.3729 31.056 28.6219 31.0528C28.871 31.056 29.1181 31.0084 29.3491 30.9129C29.5801 30.8173 29.7903 30.6757 29.9675 30.4961C30.1447 30.3166 30.2854 30.1027 30.3815 29.8669C30.4775 29.6311 30.5269 29.3781 30.5269 29.1226C30.5269 28.8671 30.4775 28.6141 30.3815 28.3783C30.2854 28.1425 30.1447 27.9286 29.9675 27.7491C29.7903 27.5695 29.5801 27.4279 29.3491 27.3323C29.1181 27.2368 28.871 27.1892 28.6219 27.1924ZM33.9021 27.1924C33.6531 27.1892 33.4059 27.2368 33.1749 27.3323C32.9439 27.4279 32.7337 27.5695 32.5565 27.7491C32.3793 27.9286 32.2386 28.1425 32.1426 28.3783C32.0466 28.6141 31.9971 28.8671 31.9971 29.1226C31.9971 29.3781 32.0466 29.6311 32.1426 29.8669C32.2386 30.1027 32.3793 30.3166 32.5565 30.4961C32.7337 30.6757 32.9439 30.8173 33.1749 30.9129C33.4059 31.0084 33.6531 31.056 33.9021 31.0528C34.1512 31.056 34.3983 31.0084 34.6293 30.9129C34.8603 30.8173 35.0705 30.6757 35.2477 30.4961C35.4249 30.3166 35.5656 30.1027 35.6616 29.8669C35.7577 29.6311 35.8071 29.3781 35.8071 29.1226C35.8071 28.8671 35.7577 28.6141 35.6616 28.3783C35.5656 28.1425 35.4249 27.9286 35.2477 27.7491C35.0705 27.5695 34.8603 27.4279 34.6293 27.3323C34.3983 27.2368 34.1512 27.1892 33.9021 27.1924Z" fill="#16D0E9"/>
</g>
<defs>
<filter id="filter0_i_2167_280" x="0" y="0" width="45" height="49" filterUnits="userSpaceOnUse" color-interpolation-filters="sRGB">
<feFlood flood-opacity="0" result="BackgroundImageFix"/>
<feBlend mode="normal" in="SourceGraphic" in2="BackgroundImageFix" result="shape"/>
<feColorMatrix in="SourceAlpha" type="matrix" values="0 0 0 0 0 0 0 0 0 0 0 0 0 0 0 0 0 0 127 0" result="hardAlpha"/>
<feOffset dy="4"/>
<feGaussianBlur stdDeviation="2"/>
<feComposite in2="hardAlpha" operator="arithmetic" k2="-1" k3="1"/>
<feColorMatrix type="matrix" values="0 0 0 0 0 0 0 0 0 0 0 0 0 0 0 0 0 0 0.25 0"/>
<feBlend mode="normal" in2="shape" result="effect1_innerShadow_2167_280"/>
</filter>
</defs>
</svg>
